<?xml version="1.0" encoding="utf-8"?>
<!-- Generator: Adobe Illustrator 24.1.1, SVG Export Plug-In . SVG Version: 6.00 Build 0)  -->
<svg version="1.1" id="Layer_1" xmlns="http://www.w3.org/2000/svg" xmlns:xlink="http://www.w3.org/1999/xlink" x="0px" y="0px"
	 viewBox="0 0 622 124" style="enable-background:new 0 0 622 124;" xml:space="preserve">
<style type="text/css">
	.st0{fill:#FFFFFF;}
	.st1{fill-rule:evenodd;clip-rule:evenodd;fill:#FFFFFF;}
</style>
<g>
	<path class="st0" d="M142.7,76.74l-7.17-0.63c-5.63-0.45-7.81-2.72-7.81-6.54c0-4.54,3.45-7.36,9.99-7.36
		c4.63,0,8.72,1.09,11.9,3.54l4.27-4.27c-4-3.27-9.72-4.81-16.07-4.81c-9.54,0-16.44,4.9-16.44,13.08c0,7.36,4.63,11.26,13.35,11.99
		l7.36,0.64c5.18,0.46,7.45,2.63,7.45,6.54c0,5.27-4.54,7.9-11.9,7.9c-5.54,0-10.35-1.45-13.9-5.18L119.36,96
		c4.9,4.72,10.81,6.45,18.35,6.45c10.81,0,18.16-5,18.16-13.62C155.87,80.46,150.51,77.47,142.7,76.74L142.7,76.74z M198.61,56.67
		c-7.17,0-11.69,1.41-15.64,6.42c-0.05,0.07,4.29,4.29,4.29,4.29c2.63-3.72,5.54-5.08,11.26-5.08c8.17,0,11.44,3.27,11.44,9.81v4.27
		h-13.44c-9.99,0-15.44,5.09-15.44,12.9c-0.1,3.35,1.1,6.61,3.36,9.08c2.82,2.91,6.45,4.09,12.62,4.09c5.99,0,9.26-1.18,12.9-4.81
		v4.27h6.54V71.57C216.51,61.85,210.61,56.67,198.61,56.67L198.61,56.67z M209.97,86.1c0,3.72-0.73,6.27-2.27,7.72
		c-2.82,2.72-6.18,3-9.99,3c-7.08,0-10.26-2.45-10.26-7.63c0-5.18,3.27-7.9,9.99-7.9h12.53V86.1z M242.12,62.49
		c4.27,0,6.9,1.27,10.26,4.99c0,0,4.38-4.26,4.34-4.29c-4.58-4.9-8.48-6.51-14.6-6.51c-11.26,0-19.8,7.63-19.8,22.88
		s8.54,22.89,19.8,22.89c6.18,0,10.08-1.64,14.71-6.63l-4.45-4.27c-3.36,3.72-5.99,5.09-10.26,5.09c-4.09,0.16-7.98-1.75-10.35-5.09
		c-2.09-2.91-2.91-6.36-2.91-11.99c0-5.63,0.82-9.08,2.91-11.99C234.14,64.24,238.03,62.32,242.12,62.49L242.12,62.49z
		 M298.12,57.15h-8.15l-20.26,19.72l0.03-39.64h-6.54v64.66h6.54l-0.03-16.31l7.93-7.96l14.99,24.27h8.08l-18.54-28.8L298.12,57.15z
		 M328.33,56.06c-6.7,0-11.23,2.61-14.01,5.57c-4.09,4.26-5.13,9.4-5.13,17.58c0,8.27,1.04,13.4,5.13,17.67
		c2.79,2.96,7.31,5.57,14.01,5.57s11.32-2.61,14.1-5.57c4.09-4.26,5.14-9.4,5.14-17.67c0-8.18-1.05-13.32-5.14-17.58
		C339.65,58.67,335.04,56.06,328.33,56.06z M333.64,90.26c-1.42,1.37-3.34,2.09-5.31,2c-1.94,0.09-3.84-0.63-5.22-2
		c-2.35-2.35-2.61-6.35-2.61-11.05c0-4.7,0.26-8.62,2.61-10.97c1.38-1.37,3.28-2.09,5.22-2c1.97-0.09,3.89,0.63,5.31,2
		c2.35,2.35,2.61,6.27,2.61,10.97S335.99,87.91,333.64,90.26z M377.7,56.58l-9.14,28.02l-9.23-28.03h-11.93l16.71,45.35H373
		l16.62-45.35L377.7,56.58z M408.87,56.05c-11.75,0-19.76,8.35-19.76,23.15c0,18.37,10.27,23.24,20.98,23.24
		c8.18,0,12.62-2.53,17.23-7.14l-6.88-6.7c-2.87,2.87-5.31,4.26-10.27,4.26c-6.35,0-9.92-4.26-9.92-10.1h28.37v-5.05
		C428.63,65.28,421.49,56.05,408.87,56.05z M400.26,75.03c0.02-1.68,0.37-3.34,1.05-4.87c1.43-2.88,4.36-4.7,7.57-4.7
		c3.21,0,6.15,1.82,7.57,4.7c0.67,1.54,1.03,3.2,1.04,4.87H400.26z M445.32,60.93v-4.35h-11.05v45.35h11.32V74.59
		c0-5.75,3.83-8.36,7.31-8.36c2.29-0.08,4.5,0.9,5.97,2.67l8.57-8.58c-3.13-3.13-6.27-4.26-10.71-4.26
		C452.41,56,448.27,57.77,445.32,60.93L445.32,60.93z M470.94,51.85v50.03h11.31V66.12h8.36v-8.62h-8.36v-4.96
		c0-2.61,1.31-4.09,4-4.09h4.35v-9.57h-6.44C474.94,38.88,470.94,45.41,470.94,51.85L470.94,51.85z M537.19,56.05
		c-6.7,0-11.23,2.61-14.01,5.57c-4.09,4.27-5.13,9.4-5.13,17.58c0,8.27,1.04,13.4,5.13,17.67c2.79,2.96,7.31,5.57,14.01,5.57
		c6.7,0,11.32-2.61,14.1-5.57c4.09-4.27,5.14-9.4,5.14-17.67c0-8.18-1.05-13.32-5.14-17.58C548.51,58.66,543.89,56.05,537.19,56.05z
		 M542.5,90.25c-1.42,1.37-3.34,2.09-5.31,2c-1.94,0.09-3.84-0.63-5.22-2c-2.35-2.35-2.61-6.35-2.61-11.05
		c0-4.7,0.26-8.62,2.61-10.97c1.38-1.37,3.28-2.09,5.22-2c1.97-0.09,3.89,0.63,5.31,2c2.35,2.35,2.61,6.27,2.61,10.97
		C545.11,83.9,544.85,87.9,542.5,90.25z M609.88,56.57l-7.31,28.03l-9.31-28.02h-8.27l-9.23,28.02l-7.31-28.03h-12.01l13.93,45.35
		h9.31l9.49-28.46l9.49,28.46h9.31l13.84-45.35L609.88,56.57z M507.3,88.26V38.88h-11.31v50.07c0,6.44,3.92,12.97,13.23,12.97h6.44
		v-9.57h-4.35C508.44,92.35,507.31,90.96,507.3,88.26L507.3,88.26z M174,64.25l6.05-6.05h-12.38V43.5h-6.54v46.41
		c0,6.63,3.81,11.99,11.44,11.99h4.63v-5.63h-3.45c-4.18,0-6.08-2.45-6.08-6.54V64.25H174z"/>
	<polygon class="st1" points="88,80 99,80 99,124 0,124 0,80 11,80 11,113 88,113 	"/>
	<path class="st0" d="M22.99,76.73l54.03,11.35l2.27-10.8L25.26,65.93L22.99,76.73z M30.14,50.86l50.05,23.31l4.66-10.01L34.8,40.85
		L30.14,50.86z M43.98,26.31l42.43,35.33l7.07-8.49L51.05,17.82L43.98,26.31z M71.37,0.19l-8.86,6.59l32.95,44.3l8.86-6.59
		L71.37,0.19z M22,102h55V91H22V102z"/>
</g>
</svg>
