<?xml version="1.0" encoding="utf-8"?>
<!-- Generator: Adobe Illustrator 24.1.1, SVG Export Plug-In . SVG Version: 6.00 Build 0)  -->
<svg version="1.1" id="Layer_1" xmlns="http://www.w3.org/2000/svg" xmlns:xlink="http://www.w3.org/1999/xlink" x="0px" y="0px"
	 viewBox="0 0 1366 768" style="enable-background:new 0 0 1366 768;" xml:space="preserve">
<style type="text/css">
	.st0{fill:none;}
	.st1{fill:#FFFFFF;}
</style>
<g>
	<path class="st0" d="M938.87,245.08c0,125.39-0.03,250.79,0.13,376.18c0.01,4.28-1.15,4.74-4.98,4.74
		c-167.36-0.11-334.71-0.11-502.07,0c-3.87,0-4.96-0.53-4.95-4.76c0.15-144.38,0.12-288.76,0.12-433.13
		c0.98,1.51,2.04,2.96,2.92,4.52c50.87,90.65,101.71,181.31,152.6,271.95c0.84,1.49,1.11,4,3.38,3.81c1.79-0.15,2.04-2.41,2.81-3.78
		c34.93-62.22,69.81-124.46,104.74-186.67c0.76-1.35,0.99-3.22,3.08-3.77c36.35,64.76,72.69,129.5,109.32,194.76
		c1.24-2.06,2.05-3.3,2.77-4.59c16.42-29.31,32.76-58.66,49.32-87.89c1.83-3.23,1.57-5.49-0.16-8.56
		c-32.99-58.54-65.89-117.12-98.68-175.77c-1.92-3.44-3.88-4.9-8.01-4.88c-36.65,0.19-73.29,0.18-109.94,0.02
		c-3.99-0.02-6.21,1.14-8.17,4.68c-14.56,26.34-29.34,52.58-44.1,78.81c-0.99,1.77-1.5,3.97-3.68,5.17
		c-15.84-28.25-31.66-56.37-47.34-84.57c-1.65-2.97-3.48-4.14-6.97-4.1c-15.66,0.21-31.32,0.12-46.97,0.08
		c-18.98-0.05-37.96-0.15-56.93-0.23c0-14.15,0.05-28.3-0.06-42.45c-0.02-2.07,0.32-3,2.52-2.55c0.64,0.13,1.33,0.02,1.99,0.02
		c167.62,0,335.24,0.02,502.87-0.1c3.9,0,4.54,1.04,4.52,4.67c-0.17,27.8-0.09,55.6-0.09,83.4c-0.29-0.36-0.77-0.67-0.85-1.07
		c-3.15-15.42-13.2-24.48-27.42-29.62c-2.62-0.95-5.38-1.53-8.65-2.44c8.9-10.34,16.96-20.78,26.21-30.05
		c6.13-6.15,7.4-12.79,6.85-20.66c-0.16-2.24-0.54-3.2-3.05-3.19c-25.65,0.08-51.29,0.09-76.94-0.01c-2.81-0.01-3.3,1.08-3.22,3.51
		c0.15,4.66,0.25,9.34-0.03,13.98c-0.19,3.21,1,3.87,3.97,3.83c13.32-0.16,26.64-0.1,39.97-0.11c2.55,0,5.11,0,8.42,0
		c-10.42,10.76-18.59,22.19-28.26,32.23c-5.34,5.55-6.34,10.25-2.29,16.78c1.63,2.63,2.91,3.92,6.01,3.72
		c3.48-0.22,7.02-0.21,10.48,0.16c8.32,0.89,16.17,3.1,21.01,10.7c8.26,12.97-1.61,29.02-18.43,30.27
		c-12.02,0.89-22.23-3.42-31.13-11.01c-2.7-2.3-3.81-1.91-5.45,0.85c-2.37,4-4.81,8.03-7.72,11.63c-2.74,3.38-1.61,5.19,1.32,7.54
		c11.86,9.56,25.41,14.52,40.52,14.62c26.71,0.18,43.39-15.39,47.7-35.12C937.99,246.06,938.53,245.59,938.87,245.08z
		 M597.54,563.06c0-12.39,0-23.33,0-34.26c0-12.61,0-12.45-12.84-12.55c-3.82-0.03-4.67,1.12-4.65,4.79
		c0.15,29.96,0.09,59.92,0.09,89.88c0,12.22,0,12.04,12.01,12.28c4.05,0.08,5.34-0.85,5.3-5.12c-0.11-11.64-0.91-23.32,0.39-34.92
		c1.06-9.54,8.44-15.04,18.26-14.39c7.81,0.52,12.87,6.55,13.07,15.99c0.17,8.32,0.06,16.64,0.07,24.96
		c0.01,13.9,0,13.9,13.92,13.27c0.17-0.01,0.33-0.02,0.5,0c2.1,0.24,3-0.6,2.95-2.8c-0.31-14.47,0.8-28.98-0.66-43.41
		c-1.43-14.15-10.24-23.12-23.96-24.47C612.67,551.39,604.75,554.73,597.54,563.06z M664.57,589.25
		c0.59,21.13,16.76,36.24,38.11,35.61c20.73-0.62,35.9-16.97,35.27-38.01c-0.6-19.88-17.37-35.31-37.67-34.65
		C679.37,552.88,664,568.83,664.57,589.25z M752.75,588.17c-0.14,20.74,15.29,36.48,35.97,36.71c21.08,0.23,37.16-15.27,37.3-35.96
		c0.14-20.79-15.58-36.58-36.55-36.74C768.72,552.03,752.89,567.54,752.75,588.17z M472.35,573.9c2.25,0,3.6-0.17,4.91,0.03
		c4.44,0.67,4.96-1.34,4.01-5.09c-1.16-4.57-3.46-8.24-7.18-11.04c-9.84-7.42-26.28-7.36-36.04,0.13
		c-11.6,8.9-10.48,25.21,2.25,32.45c2.91,1.65,6.02,2.78,9.25,3.63c4.33,1.14,8.74,2.12,12.94,3.64c4.63,1.68,5.76,5.9,2.93,9.55
		c-4.28,5.52-16.81,5.23-19.51-1.15c-1.93-4.56-4.67-4.21-8.08-4.17c-2.33,0.02-4.67,0.12-6.99-0.02c-2.39-0.14-2.8,0.92-2.38,3
		c1.06,5.24,3.44,9.67,7.56,13.13c10.94,9.18,29.78,9.23,40.77,0.09c10.69-8.88,9.43-24.48-2.53-31.56
		c-2.89-1.71-6.04-2.72-9.25-3.62c-4.47-1.25-9.05-2.27-13.36-3.95c-5-1.95-5.8-6.83-2.09-10.34c3.56-3.37,11.74-3.51,13.85,0.7
		C465.79,574.09,469.07,574.34,472.35,573.9z M926.32,573.9c9.28,0,10.43-2.1,5.69-10.36c-1.18-2.05-2.68-3.8-4.51-5.28
		c-9.9-8.02-27.41-7.95-37.23,0.13c-10.94,9.02-9.66,24.71,2.62,31.86c3.04,1.77,6.31,2.94,9.71,3.82
		c4.18,1.08,8.42,2.02,12.47,3.46c4.89,1.74,6.07,6.13,2.99,9.86c-4.36,5.27-16.44,4.99-19.21-1.15c-2.04-4.51-4.83-4.65-8.47-4.33
		c-3.06,0.27-7.71-1.58-8.81,0.88c-1.47,3.3,0.97,7.31,3.1,10.57c1.29,1.97,2.88,3.64,4.72,5.1c10.81,8.55,28.78,8.58,39.61,0.04
		c11.44-9.02,10.07-25.51-2.8-32.37c-2.75-1.47-5.85-2.32-8.85-3.27c-4.27-1.35-8.71-2.25-12.87-3.86
		c-5.05-1.96-5.97-6.75-2.34-10.31c3.52-3.44,11.99-3.75,13.79,0.53C918.33,574.9,922.23,573.81,926.32,573.9z M537.71,624.88
		c5.95-0.15,13.02-2.21,19.27-6.77c7.75-5.65,7.76-5.84,0.46-11.63c-0.52-0.41-1.1-0.78-1.54-1.27c-2.52-2.85-4.54-2.74-7.75-0.24
		c-8,6.24-19.99,5-26.92-2.11c-6.87-7.04-7.54-19.32-1.48-27.04c6.06-7.72,18.27-10.64,26.47-4.61c5.57,4.1,8.5,2.32,12.23-1.3
		c0.36-0.35,0.72-0.72,1.16-0.94c4.46-2.34,3.76-4.55,0.36-7.59c-11.95-10.69-30.82-12.19-45.05-3.27
		c-13.79,8.64-19.87,25-15.2,40.86C504.36,614.62,518.89,625.02,537.71,624.88z M845.04,569.74c0,13.64,0,27.28,0,40.92
		c0,12.54,0,12.36,12.77,12.52c3.91,0.05,4.61-1.22,4.6-4.8c-0.13-29.77-0.08-59.54-0.08-89.31c0-12.98,0-12.83-13.03-12.82
		c-3.65,0-4.36,1.27-4.33,4.6C845.13,537.14,845.04,553.44,845.04,569.74z"/>
	<path class="st1" d="M427.12,187.11c18.98,0.08,37.96,0.19,56.93,0.23c15.66,0.04,31.32,0.12,46.97-0.08
		c3.48-0.05,5.31,1.12,6.97,4.1c15.68,28.2,31.5,56.31,47.34,84.57c2.18-1.2,2.68-3.41,3.68-5.17
		c14.76-26.23,29.54-52.46,44.1-78.81c1.96-3.54,4.17-4.7,8.17-4.68c36.65,0.16,73.29,0.17,109.94-0.02
		c4.13-0.02,6.09,1.44,8.01,4.88c32.79,58.65,65.7,117.23,98.68,175.77c1.73,3.07,1.99,5.33,0.16,8.56
		c-16.56,29.23-32.9,58.58-49.32,87.89c-0.72,1.29-1.53,2.53-2.77,4.59C769.34,403.67,733,338.92,696.65,274.17
		c-2.09,0.55-2.32,2.43-3.08,3.77c-34.93,62.22-69.81,124.46-104.74,186.67c-0.77,1.38-1.02,3.64-2.81,3.78
		c-2.27,0.19-2.54-2.32-3.38-3.81c-50.89-90.64-101.73-181.3-152.6-271.95c-0.88-1.56-1.94-3.02-2.92-4.52
		C427.12,187.77,427.12,187.44,427.12,187.11z"/>
	<path class="st1" d="M938.87,245.08c-0.34,0.51-0.88,0.98-1.01,1.54c-4.31,19.73-20.99,35.3-47.7,35.12
		c-15.11-0.1-28.66-5.06-40.52-14.62c-2.92-2.36-4.05-4.16-1.32-7.54c2.92-3.6,5.35-7.63,7.72-11.63c1.64-2.76,2.75-3.15,5.45-0.85
		c8.91,7.59,19.11,11.9,31.13,11.01c16.81-1.25,26.69-17.3,18.43-30.27c-4.84-7.6-12.69-9.81-21.01-10.7
		c-3.46-0.37-7-0.38-10.48-0.16c-3.1,0.2-4.38-1.09-6.01-3.72c-4.05-6.53-3.06-11.23,2.29-16.78c9.67-10.04,17.84-21.47,28.26-32.23
		c-3.31,0-5.87,0-8.42,0c-13.32,0.01-26.65-0.05-39.97,0.11c-2.97,0.04-4.16-0.62-3.97-3.83c0.28-4.65,0.18-9.33,0.03-13.98
		c-0.08-2.43,0.41-3.52,3.22-3.51c25.65,0.1,51.29,0.09,76.94,0.01c2.51-0.01,2.89,0.95,3.05,3.19c0.55,7.88-0.71,14.52-6.85,20.66
		c-9.24,9.27-17.3,19.71-26.21,30.05c3.27,0.91,6.02,1.49,8.65,2.44c14.22,5.14,24.26,14.2,27.42,29.62
		c0.08,0.4,0.56,0.72,0.85,1.07C938.87,235.08,938.87,240.08,938.87,245.08z"/>
	<path class="st1" d="M597.54,563.06c7.21-8.34,15.13-11.67,24.45-10.75c13.71,1.35,22.53,10.32,23.96,24.47
		c1.46,14.43,0.35,28.94,0.66,43.41c0.05,2.2-0.85,3.04-2.95,2.8c-0.16-0.02-0.33-0.01-0.5,0c-13.92,0.63-13.92,0.63-13.92-13.27
		c0-8.32,0.11-16.65-0.07-24.96c-0.2-9.44-5.26-15.47-13.07-15.99c-9.82-0.65-17.19,4.85-18.26,14.39
		c-1.29,11.59-0.49,23.28-0.39,34.92c0.04,4.28-1.25,5.2-5.3,5.12c-12-0.24-12.01-0.06-12.01-12.28c0-29.96,0.07-59.92-0.09-89.88
		c-0.02-3.67,0.82-4.82,4.65-4.79c12.84,0.11,12.84-0.05,12.84,12.55C597.54,539.74,597.54,550.68,597.54,563.06z"/>
	<path class="st1" d="M664.57,589.25c-0.57-20.42,14.8-36.37,35.71-37.05c20.31-0.66,37.08,14.77,37.67,34.65
		c0.63,21.04-14.54,37.39-35.27,38.01C681.33,625.5,665.16,610.39,664.57,589.25z M701.2,608.89c10.95-0.03,19.54-8.95,19.56-20.29
		c0.01-11.3-8.65-20.37-19.51-20.41c-10.97-0.05-19.33,8.75-19.33,20.35C681.91,600.18,690.19,608.92,701.2,608.89z"/>
	<path class="st1" d="M752.75,588.17c0.14-20.62,15.97-36.14,36.72-35.98c20.97,0.16,36.68,15.95,36.55,36.74
		c-0.13,20.69-16.22,36.19-37.3,35.96C768.04,624.65,752.62,608.9,752.75,588.17z M808.84,588.71c0.07-11.32-8.48-20.38-19.38-20.52
		c-10.92-0.14-19.46,8.74-19.49,20.26c-0.03,11.61,8.25,20.41,19.25,20.44C800.24,608.92,808.76,600.15,808.84,588.71z"/>
	<path class="st1" d="M472.35,573.9c-3.28,0.44-6.55,0.19-8.95-4.6c-2.11-4.21-10.29-4.07-13.85-0.7c-3.71,3.51-2.9,8.39,2.09,10.34
		c4.31,1.68,8.88,2.7,13.36,3.95c3.21,0.9,6.36,1.91,9.25,3.62c11.97,7.08,13.22,22.67,2.53,31.56c-10.99,9.14-29.83,9.1-40.77-0.09
		c-4.12-3.46-6.5-7.89-7.56-13.13c-0.42-2.09-0.01-3.15,2.38-3c2.32,0.14,4.66,0.04,6.99,0.02c3.41-0.03,6.16-0.38,8.08,4.17
		c2.7,6.38,15.23,6.67,19.51,1.15c2.82-3.65,1.7-7.87-2.93-9.55c-4.2-1.52-8.6-2.5-12.94-3.64c-3.23-0.85-6.34-1.97-9.25-3.63
		c-12.73-7.24-13.85-23.55-2.25-32.45c9.76-7.49,26.2-7.55,36.04-0.13c3.72,2.81,6.03,6.48,7.18,11.04
		c0.95,3.75,0.43,5.76-4.01,5.09C475.95,573.73,474.59,573.9,472.35,573.9z"/>
	<path class="st1" d="M926.32,573.89c-4.08-0.09-7.99,1-10.38-4.68c-1.8-4.28-10.27-3.97-13.79-0.53
		c-3.64,3.56-2.72,8.35,2.34,10.31c4.16,1.62,8.6,2.51,12.87,3.86c3,0.95,6.1,1.8,8.85,3.27c12.87,6.86,14.24,23.36,2.8,32.37
		c-10.83,8.54-28.8,8.51-39.61-0.04c-1.84-1.46-3.44-3.13-4.72-5.1c-2.13-3.27-4.57-7.28-3.1-10.57c1.1-2.47,5.75-0.62,8.81-0.88
		c3.64-0.32,6.43-0.18,8.47,4.33c2.78,6.14,14.85,6.42,19.21,1.15c3.08-3.73,1.9-8.12-2.99-9.86c-4.06-1.44-8.29-2.39-12.47-3.46
		c-3.4-0.88-6.67-2.05-9.71-3.82c-12.28-7.16-13.56-22.85-2.62-31.86c9.81-8.08,27.33-8.15,37.23-0.13
		c1.83,1.48,3.33,3.23,4.51,5.28C936.75,571.79,935.6,573.9,926.32,573.89z"/>
	<path class="st1" d="M537.71,624.88c-18.82,0.14-33.35-10.25-37.96-25.92c-4.67-15.87,1.41-32.23,15.2-40.86
		c14.23-8.91,33.1-7.42,45.05,3.27c3.4,3.04,4.1,5.25-0.36,7.59c-0.43,0.23-0.8,0.6-1.16,0.94c-3.74,3.62-6.66,5.39-12.23,1.3
		c-8.21-6.03-20.41-3.11-26.47,4.61c-6.06,7.73-5.39,20,1.48,27.04c6.93,7.11,18.92,8.34,26.92,2.11c3.2-2.5,5.22-2.61,7.75,0.24
		c0.43,0.49,1.02,0.85,1.54,1.27c7.29,5.79,7.28,5.99-0.46,11.63C550.72,622.67,543.66,624.73,537.71,624.88z"/>
	<path class="st1" d="M845.04,569.74c0-16.3,0.08-32.6-0.07-48.9c-0.03-3.33,0.68-4.59,4.33-4.6c13.03-0.01,13.03-0.16,13.03,12.82
		c0,29.77-0.06,59.54,0.08,89.31c0.02,3.57-0.69,4.85-4.6,4.8c-12.77-0.16-12.77,0.02-12.77-12.52
		C845.04,597.02,845.04,583.38,845.04,569.74z"/>
</g>
</svg>
