<?xml version="1.0" encoding="utf-8"?>
<!-- Generator: Adobe Illustrator 24.1.1, SVG Export Plug-In . SVG Version: 6.00 Build 0)  -->
<svg version="1.1" id="Layer_1" xmlns="http://www.w3.org/2000/svg" xmlns:xlink="http://www.w3.org/1999/xlink" x="0px" y="0px"
	 viewBox="0 0 400 400" style="enable-background:new 0 0 400 400;" xml:space="preserve">
<style type="text/css">
	.st0{fill:none;}
	.st1{fill:#FFFFFF;}
</style>
<g>
	<path class="st0" d="M400,400c-133.33,0-266.67,0-400,0C0,266.67,0,133.33,0,0c133.33,0,266.67,0,400,0
		C400,133.33,400,266.67,400,400z M205.73,229.29c40.82-15.3,80.56-30.2,120.36-45.11c0.47,1.14,0.82,1.58,0.82,2.02
		c0.05,19.33,0.1,38.65,0.03,57.98c0,1.14-0.73,2.56-1.58,3.36c-7.53,7.06-7.13,12.55,0.66,17.57c-2.24,7.9-4.41,15.55-6.57,23.2
		c0.45,0.16,0.9,0.32,1.36,0.48c0.88-2.64,1.77-5.28,2.65-7.92c0.18,0.05,0.36,0.11,0.55,0.16c0,2.28,0,4.56,0,6.84
		c0.12,0.02,0.25,0.04,0.37,0.07c0.57-2.98,1.14-5.97,1.71-8.95c0.25,0.05,0.5,0.09,0.75,0.14c0.13,2.52,0.25,5.04,0.38,7.56
		c0.13,0,0.25-0.01,0.38-0.01c0.19-2.62,0.38-5.23,0.57-7.85c0.26-0.01,0.52-0.02,0.78-0.03c0.35,2.97,0.71,5.95,1.06,8.92
		c0.17-0.03,0.33-0.06,0.5-0.09c0.5-2.86,0.99-5.73,1.49-8.59c0.26,0.03,0.52,0.05,0.78,0.08c0.21,3.01,0.42,6.01,0.63,9.02
		c0.27-0.01,0.54-0.02,0.8-0.03c0.37-1.53,0.73-3.07,1.18-4.92c0.87,2.25,1.55,4.01,2.23,5.76c0.56-0.19,1.12-0.39,1.67-0.58
		c-2.18-7.76-4.36-15.52-6.58-23.4c7.85-4.83,8.24-10.81,1.04-17.21c-1.21-1.07-1.83-3.39-1.84-5.14
		c-0.13-18.16,0.09-36.33-0.2-54.48c-0.07-4.55,1.18-6.82,5.59-8.31c10-3.37,19.81-7.3,30.91-11.47
		c-54.71-20.28-108.19-40.1-162.5-60.23c0,5.74,0.29,10.4-0.08,15c-0.38,4.69,1.22,7.01,5.83,8.63
		c31.83,11.21,63.54,22.73,95.29,34.16c1.82,0.66,3.6,1.46,6.71,2.72c-9.51,3.5-17.73,6.55-25.97,9.55
		c-25.78,9.38-51.58,18.69-77.31,28.19c-1.71,0.63-4.09,2.47-4.21,3.9C205.45,216.19,205.73,222.17,205.73,229.29z M93.14,201.13
		c0,15.15-0.6,29.63,0.18,44.05c0.69,12.82,9.28,21.94,21.94,24.49c6.48,1.3,13.19,1.65,19.81,2.01c10.3,0.56,20.62,0.56,30.92,1.17
		c7.84,0.46,15.87,3.06,18.55,10.57c3.23,9.05,9.09,9.26,16.4,8.56c1.16-0.11,2.35-0.14,3.49,0.01c3.28,0.42,4.96-0.72,6.06-4.11
		c2.5-7.7,7.98-12.68,16.02-14.08c6.04-1.05,12.19-1.6,18.32-1.92c10.3-0.53,20.64-0.38,30.93-1.08
		c17.97-1.22,28.66-12.55,29.01-30.49c0.23-11.65,0.13-23.32,0.14-34.97c0-1.25-0.26-2.51-0.44-4.22c-4.29,1.57-8.1,3.13-12.03,4.34
		c-2.92,0.9-3.75,2.67-3.73,5.55c0.03,7.66,0.07,15.33-0.35,22.97c-0.72,13.23-4.78,16.98-17.95,17.3
		c-10.32,0.25-20.64,0.83-30.96,0.72c-15.45-0.16-27.63,6.19-37.47,17.67c-1.03,1.21-1.57,2.84-2.48,4.54
		c-2.11-2.44-2.87-3.31-3.62-4.19c-9.96-11.58-22.18-18.19-37.84-18.01c-10.31,0.12-20.64-0.47-30.96-0.72
		c-13.18-0.32-17.93-4.99-18.23-18.27c-0.17-7.49,0.06-14.99-0.16-22.48c-0.04-1.47-1.01-3.67-2.18-4.22
		C102.18,204.27,97.61,202.8,93.14,201.13z M32.2,168.34c54.66,20.51,108.21,40.61,162.56,61.01c0-6.04-0.3-11.18,0.1-16.27
		c0.32-4.09-1.26-5.7-5.01-7.05c-32.08-11.48-64.08-23.19-96.1-34.85c-1.87-0.68-3.67-1.53-6.71-2.81
		c8.88-3.22,16.36-5.93,23.84-8.64c26.58-9.6,53.16-19.17,79.7-28.88c1.59-0.58,3.89-2.15,3.97-3.39
		c0.41-6.22,0.19-12.48,0.19-19.39C140.41,128.22,86.87,148.07,32.2,168.34z M188.4,156.65c6.9-3.49,12.14-5.12,18.97-2.41
		c18.38,7.3,37.12,13.67,55.77,20.29c2.12,0.75,4.73,1.56,6.71,0.98c6.17-1.81,12.15-4.28,19.04-6.81c-2.33-1-3.78-1.71-5.28-2.25
		c-26.28-9.46-52.53-18.99-78.88-28.23c-2.67-0.94-6.23-0.97-8.9-0.05c-19.96,6.89-39.8,14.12-59.66,21.27
		c-8.01,2.88-15.99,5.85-24.28,8.89c0.75,0.6,0.98,0.89,1.27,0.99c28.12,10.23,56.24,20.45,84.37,30.64
		c1.07,0.39,2.39,0.95,3.33,0.64c6.46-2.17,12.85-4.56,20.53-7.33c-22.96-8.38-44.45-16.22-66.71-24.35
		c7.02-4.19,12.75-4.74,19.5-2.11c18.59,7.22,37.46,13.72,56.24,20.45c1.5,0.54,3.36,1.32,4.7,0.88c6.4-2.06,12.67-4.49,20.27-7.26
		C232.53,172.61,211.02,164.83,188.4,156.65z"/>
	<path class="st1" d="M205.73,229.29c0-7.11-0.28-13.1,0.2-19.03c0.12-1.43,2.49-3.27,4.21-3.9c25.73-9.49,51.53-18.81,77.31-28.19
		c8.24-3,16.45-6.05,25.97-9.55c-3.11-1.27-4.88-2.07-6.71-2.72c-31.75-11.44-63.47-22.95-95.29-34.16
		c-4.61-1.62-6.21-3.94-5.83-8.63c0.37-4.6,0.08-9.26,0.08-15c54.31,20.13,107.79,39.95,162.5,60.23
		c-11.1,4.16-20.91,8.1-30.91,11.47c-4.41,1.49-5.66,3.75-5.59,8.31c0.28,18.16,0.07,36.32,0.2,54.48c0.01,1.75,0.64,4.07,1.84,5.14
		c7.2,6.4,6.81,12.37-1.04,17.21c2.22,7.88,4.4,15.64,6.58,23.4c-0.56,0.19-1.12,0.39-1.67,0.58c-0.68-1.76-1.36-3.51-2.23-5.76
		c-0.44,1.85-0.81,3.38-1.18,4.92c-0.27,0.01-0.54,0.02-0.8,0.03c-0.21-3.01-0.42-6.01-0.63-9.02c-0.26-0.03-0.52-0.05-0.78-0.08
		c-0.5,2.86-0.99,5.73-1.49,8.59c-0.17,0.03-0.33,0.06-0.5,0.09c-0.35-2.97-0.71-5.95-1.06-8.92c-0.26,0.01-0.52,0.02-0.78,0.03
		c-0.19,2.62-0.38,5.23-0.57,7.85c-0.13,0-0.25,0.01-0.38,0.01c-0.13-2.52-0.25-5.04-0.38-7.56c-0.25-0.05-0.5-0.09-0.75-0.14
		c-0.57,2.98-1.14,5.97-1.71,8.95c-0.12-0.02-0.25-0.04-0.37-0.07c0-2.28,0-4.56,0-6.84c-0.18-0.05-0.36-0.11-0.55-0.16
		c-0.88,2.64-1.77,5.28-2.65,7.92c-0.45-0.16-0.9-0.32-1.36-0.48c2.17-7.65,4.33-15.29,6.57-23.2c-7.79-5.01-8.19-10.5-0.66-17.57
		c0.85-0.8,1.57-2.22,1.58-3.36c0.07-19.33,0.02-38.65-0.03-57.98c0-0.44-0.35-0.88-0.82-2.02
		C286.3,199.09,246.56,213.98,205.73,229.29z"/>
	<path class="st1" d="M93.14,201.13c4.47,1.67,9.03,3.14,13.34,5.16c1.16,0.54,2.13,2.75,2.18,4.22c0.23,7.49,0,14.99,0.16,22.48
		c0.3,13.28,5.05,17.95,18.23,18.27c10.32,0.25,20.64,0.84,30.96,0.72c15.67-0.18,27.88,6.43,37.84,18.01
		c0.75,0.88,1.51,1.75,3.62,4.19c0.91-1.7,1.45-3.33,2.48-4.54c9.83-11.47,22.02-17.83,37.47-17.67
		c10.32,0.11,20.64-0.47,30.96-0.72c13.17-0.32,17.23-4.08,17.95-17.3c0.41-7.64,0.38-15.31,0.35-22.97
		c-0.01-2.88,0.81-4.65,3.73-5.55c3.93-1.21,7.75-2.78,12.03-4.34c0.19,1.72,0.44,2.97,0.44,4.22c-0.01,11.66,0.09,23.32-0.14,34.97
		c-0.35,17.94-11.04,29.26-29.01,30.49c-10.29,0.7-20.63,0.55-30.93,1.08c-6.13,0.32-12.28,0.87-18.32,1.92
		c-8.04,1.4-13.52,6.38-16.02,14.08c-1.1,3.39-2.78,4.53-6.06,4.11c-1.15-0.15-2.34-0.12-3.49-0.01c-7.31,0.71-13.17,0.49-16.4-8.56
		c-2.68-7.51-10.72-10.11-18.55-10.57c-10.29-0.6-20.62-0.61-30.92-1.17c-6.63-0.36-13.33-0.7-19.81-2.01
		c-12.66-2.54-21.25-11.66-21.94-24.49C92.55,230.76,93.14,216.27,93.14,201.13z"/>
	<path class="st1" d="M32.2,168.34c54.67-20.27,108.21-40.12,162.53-60.26c0,6.91,0.22,13.17-0.19,19.39
		c-0.08,1.23-2.39,2.81-3.97,3.39c-26.54,9.7-53.13,19.27-79.7,28.88c-7.48,2.7-14.96,5.42-23.84,8.64
		c3.04,1.28,4.85,2.13,6.71,2.81c32.02,11.66,64.02,23.37,96.1,34.85c3.75,1.34,5.33,2.95,5.01,7.05c-0.4,5.08-0.1,10.22-0.1,16.27
		C140.41,208.95,86.86,188.85,32.2,168.34z"/>
	<path class="st1" d="M188.4,156.65c22.63,8.18,44.13,15.96,66.99,24.22c-7.6,2.77-13.88,5.21-20.27,7.26
		c-1.34,0.43-3.19-0.35-4.7-0.88c-18.78-6.73-37.65-13.23-56.24-20.45c-6.75-2.62-12.48-2.07-19.5,2.11
		c22.26,8.13,43.75,15.97,66.71,24.35c-7.68,2.78-14.07,5.16-20.53,7.33c-0.94,0.32-2.27-0.25-3.33-0.64
		c-28.13-10.19-56.25-20.41-84.37-30.64c-0.29-0.11-0.52-0.4-1.27-0.99c8.3-3.04,16.28-6,24.28-8.89
		c19.87-7.15,39.71-14.38,59.66-21.27c2.67-0.92,6.23-0.89,8.9,0.05c26.35,9.24,52.61,18.77,78.88,28.23
		c1.5,0.54,2.94,1.25,5.28,2.25c-6.89,2.52-12.87,4.99-19.04,6.81c-1.98,0.58-4.59-0.23-6.71-0.98
		c-18.64-6.62-37.39-12.99-55.77-20.29C200.54,151.52,195.3,153.16,188.4,156.65z"/>
</g>
</svg>
